<?xml version="1.0" standalone="no"?>
<!DOCTYPE svg PUBLIC "-//W3C//DTD SVG 1.1//EN" "http://www.w3.org/Graphics/SVG/1.1/DTD/svg11.dtd" >
<svg xmlns="http://www.w3.org/2000/svg">
<metadata>Generated by IcoMoon</metadata>
<defs>
<font id="virt" horiz-adv-x="1024">
<font-face units-per-em="1024" ascent="960" descent="-64" />
<missing-glyph horiz-adv-x="1024" />
<glyph unicode="&#x20;" horiz-adv-x="512" d="" />
<glyph unicode="&#xe600;" glyph-name="recipes" d="M944 288h-86.112c-1.44 7.648-3.2 15.136-5.12 22.592l153.568 76.768c15.808 7.904 22.176 27.136 14.304 42.944-7.936 15.808-27.072 22.144-42.944 14.304l-146.496-73.216c-55.872 120.576-177.76 204.608-319.2 204.608-172.224 0-315.68-124.416-345.888-288h-86.112c-44.096 0-80-35.872-80-80 0-15.68 5.76-30.816 16.16-42.528l111.84-125.824v-23.648c0-44.128 35.904-80 80-80h608c44.128 0 80 35.872 80 80v23.648l111.808 125.824c10.432 11.712 16.192 26.848 16.192 42.528 0 44.128-35.872 80-80 80zM825.568 288h-17.984l15.936 8c0.608-2.688 1.472-5.28 2.048-8zM512 544c128.928 0 240-76.8 290.624-186.912l-28.512-14.24c-45.312 99.68-145.472 169.152-262.112 169.152-137.024 0-251.488-95.776-280.64-224h-32.896c29.728 145.888 159.008 256 313.536 256zM658.432 288c-24.736 56.416-80.992 96-146.432 96s-121.664-39.584-146.432-96h-34.368c26.432 74.432 97.376 128 180.8 128 78.88 0 146.816-47.872 176.256-116.064l-29.824-11.936zM512 320c-28.256 0-53.44-12.512-71.040-32h-39.168c22.208 38.048 63.040 64 110.208 64 47.136 0 88-25.952 110.176-64h-39.2c-17.536 19.488-42.72 32-70.976 32zM512 448c-101.28 0-186.944-67.584-214.56-160h-33.024c28.544 110.208 128.544 192 247.584 192 103.872 0 193.376-62.336 233.44-151.488l-28.576-14.272c-34.816 78.624-113.504 133.76-204.864 133.76zM832 64v-48c0-8.832-7.2-16-16-16h-608c-8.832 0-16 7.168-16 16v48l-128 144c0 8.832 7.168 16 16 16h864c8.8 0 16-7.168 16-16l-128-144zM255.264 585.216c-0.224 0.448-0.384 0.864-0.576 1.344-16.608 40.096-0.096 79.424 14.816 114.912 14.112 33.664 26.624 63.488 13.696 92.576-0.064 0.128-0.096 0.256-0.16 0.384-0.032 0.096-0.064 0.192-0.096 0.288-0.032 0.064-0.032 0.128-0.032 0.192-0.64 1.696-1.024 3.488-1.024 5.408 0 8.64 7.008 15.68 15.68 15.68 6.656 0 12.32-4.16 14.592-10.016 17.856-40.672 1.632-80.672-13.504-116.704-14.016-33.344-25.408-64.32-13.408-92.544 0.064-0.224 0.064-0.416 0-0.64 0.352-1.28 0.576-2.624 0.576-4 0-8.864-7.2-16.096-16.064-16.096-6.208 0-11.52 3.52-14.176 8.64-0.032 0-0.064 0-0.064 0-0.096 0.192-0.16 0.384-0.256 0.576zM644.928 589.888c-0.192 0.416-0.352 0.864-0.512 1.28-16.608 40.096-0.128 79.456 14.752 114.944 14.144 33.664 26.624 63.488 13.696 92.576 0 0.128-0.064 0.256-0.128 0.384-0.064 0.096-0.064 0.192-0.128 0.288 0 0.064 0 0.128 0 0.192-0.608 1.696-1.056 3.488-1.056 5.408 0 8.64 7.040 15.68 15.68 15.68 6.688 0 12.32-4.128 14.624-10.016 17.856-40.672 1.632-80.672-13.504-116.704-14.016-33.344-25.376-64.32-13.44-92.544 0.128-0.224 0.128-0.416 0.064-0.64 0.32-1.28 0.576-2.624 0.576-4 0-8.864-7.264-16.096-16.128-16.096-6.176 0-11.488 3.552-14.176 8.672h-0.064c-0.064 0.192-0.128 0.384-0.256 0.576zM480.608 729.216c-0.224 0.448-0.384 0.864-0.608 1.312-16.64 40.096-0.128 79.456 14.784 114.944 14.112 33.664 26.624 63.488 13.696 92.576-0.032 0.128-0.096 0.256-0.128 0.384-0.032 0.096-0.064 0.192-0.096 0.288-0.032 0.064-0.032 0.128-0.032 0.192-0.64 1.696-1.024 3.488-1.024 5.408 0 8.64 7.040 15.68 15.68 15.68 6.688 0 12.32-4.16 14.624-10.048 17.856-40.672 1.632-80.672-13.504-116.704-14.016-33.344-25.408-64.32-13.408-92.544 0.064-0.224 0.064-0.416 0-0.64 0.352-1.28 0.576-2.624 0.576-4 0-8.864-7.2-16.096-16.064-16.096-6.176 0-11.488 3.552-14.176 8.672-0.032 0-0.064 0-0.064 0-0.096 0.192-0.16 0.384-0.256 0.576z" />
<glyph unicode="&#xe601;" glyph-name="processes" d="M911.036 485.892c0 0-14.744 5.544-57.4 9.48-52.156 4.824-67.892 24.368-85.24 48.708h-0.348c-2.16 5.784-4.472 11.496-7.024 17.088l0.204 0.2c-4.952 29.472-7.632 54.424 25.84 94.72 27.356 32.932 33.884 47.292 33.884 47.292-6.416 16.296-21.856 31.728-21.856 31.728s-15.44 15.436-31.728 21.848c0 0-14.356-6.508-47.292-33.88-40.288-33.468-65.252-30.784-94.72-25.84l-0.2-0.2c-5.592 2.544-11.296 4.848-17.092 7.020v0.344c-24.336 17.34-43.884 33.092-48.708 85.252-3.94 42.632-9.476 57.396-9.476 57.396-16.068 6.988-37.888 6.988-37.888 6.988s-21.836 0-37.888-6.988c0 0-5.548-14.76-9.484-57.396-4.824-52.16-24.38-67.908-48.704-85.252v-0.34c-5.784-2.172-11.5-4.476-17.092-7.012l-0.192 0.188c-29.464-4.956-54.424-7.636-94.716 25.832-32.932 27.36-47.308 33.884-47.308 33.884-16.296-6.428-31.708-21.84-31.708-21.84s-15.44-15.456-21.852-31.74c0 0 6.5-14.356 33.884-47.284 33.464-40.288 30.752-65.248 25.828-94.72l0.204-0.2c-2.548-5.596-4.852-11.304-7.024-17.088h-0.336c-17.332-24.348-33.084-43.884-85.24-48.708-42.636-3.94-57.416-9.5-57.416-9.5-6.968-16.068-6.968-37.868-6.968-37.868s0-21.844 6.988-37.884c0 0 14.748-5.56 57.392-9.48 52.156-4.828 67.888-24.396 85.248-48.712h0.336c2.172-5.796 4.476-11.504 7.024-17.088l-0.204-0.204c4.96-29.472 7.636-54.424-25.828-94.72-27.364-32.932-33.892-47.308-33.892-47.308 6.436-16.284 21.848-31.712 21.848-31.712s15.452-15.44 31.736-21.84c0 0 14.352 6.496 47.284 33.876 40.288 33.464 65.26 30.752 94.72 25.832l0.2 0.204c5.592-2.544 11.308-4.844 17.092-7.020v-0.352c24.344-17.332 43.884-33.084 48.704-85.244 3.94-42.628 9.488-57.412 9.488-57.412 16.076-6.972 37.88-6.972 37.88-6.972s21.836 0 37.888 6.988c0 0 5.56 14.748 9.476 57.4 4.824 52.152 24.396 67.896 48.708 85.24v0.352c5.796 2.176 11.5 4.476 17.092 7.020l0.2-0.204c29.468 4.956 54.424 7.632 94.72-25.832 32.936-27.364 47.312-33.896 47.312-33.896 16.288 6.44 31.708 21.86 31.708 21.86s15.436 15.444 21.856 31.728c0 0-6.504 14.364-33.884 47.292-33.472 40.292-30.772 65.248-25.84 94.72l-0.204 0.204c2.548 5.584 4.86 11.292 7.024 17.088h0.348c17.332 24.332 33.084 43.884 85.24 48.712 42.636 3.936 57.416 9.48 57.416 9.48 6.972 16.064 6.972 37.884 6.972 37.884s-0.004 21.84-6.992 37.888zM511.996 258.108c-104.88 0-189.896 85.012-189.896 189.892s85.016 189.892 189.896 189.892c104.876 0 189.888-85.012 189.888-189.892s-85.012-189.892-189.888-189.892z" />
<glyph unicode="&#xe602;" glyph-name="ram" d="M628.28 775.236c-4.704-4.632-12.34-4.576-16.972 0.128l-39.292 39.9c-4.632 4.7-4.576 12.336 0.128 16.972l5.696 5.612c4.704 4.632 12.34 4.576 16.972-0.128l39.292-39.9c4.632-4.7 4.576-12.336-0.128-16.972l-5.696-5.612zM622.684 770.324c-4.704-4.632-12.34-4.576-16.972 0.128l-39.292 39.9c-4.632 4.7-4.576 12.336 0.128 16.972l5.696 5.612c4.704 4.632 12.34 4.576 16.972-0.128l39.292-39.9c4.632-4.7 4.576-12.336-0.128-16.972l-5.696-5.612zM542.24 694.608c-4.704-4.632-12.34-4.576-16.972 0.128l-39.296 39.9c-4.632 4.7-4.572 12.336 0.128 16.968l5.7 5.616c4.7 4.632 12.336 4.572 16.968-0.128l39.296-39.9c4.632-4.7 4.576-12.336-0.128-16.972l-5.696-5.612zM535.196 688.332c-4.704-4.632-12.34-4.572-16.972 0.132l-39.292 39.9c-4.632 4.704-4.572 12.34 0.128 16.972l8.292 8.168c4.7 4.632 12.336 4.572 16.968-0.128l39.296-39.9c4.632-4.7 4.576-12.336-0.128-16.968l-8.292-8.176zM453.34 607.172c-4.7-4.632-12.336-4.572-16.968 0.128l-39.296 39.9c-4.632 4.7-4.572 12.336 0.128 16.968l5.7 5.616c4.7 4.632 12.336 4.572 16.968-0.128l39.296-39.9c4.632-4.7 4.572-12.336-0.128-16.968l-5.7-5.616zM444.896 599.456c-4.704-4.632-12.34-4.572-16.972 0.128l-39.296 39.9c-4.632 4.7-4.572 12.336 0.128 16.968l5.7 5.616c4.7 4.632 12.336 4.572 16.968-0.128l39.296-39.9c4.632-4.7 4.572-12.336-0.132-16.968l-5.692-5.616zM361.596 516.932c-4.7-4.632-12.336-4.572-16.968 0.128l-39.296 39.9c-4.632 4.7-4.572 12.336 0.128 16.972l5.7 5.612c4.7 4.632 12.336 4.576 16.968-0.128l39.3-39.9c4.632-4.7 4.572-12.336-0.128-16.968l-5.704-5.616zM354.3 510.412c-4.7-4.632-12.336-4.576-16.968 0.128l-39.3 39.9c-4.632 4.7-4.572 12.336 0.128 16.968l5.7 5.616c4.7 4.632 12.336 4.572 16.968-0.128l39.3-39.9c4.632-4.7 4.572-12.336-0.128-16.972l-5.7-5.612zM265.852 418.696c-4.704-4.632-12.34-4.576-16.972 0.128l-39.3 39.896c-4.632 4.7-4.572 12.336 0.128 16.968l5.7 5.616c4.7 4.632 12.336 4.572 16.968-0.128l39.3-39.9c4.632-4.704 4.572-12.34-0.132-16.972l-5.692-5.608zM257.408 410.98c-4.704-4.632-12.34-4.576-16.972 0.128l-39.3 39.896c-4.632 4.7-4.572 12.336 0.132 16.968l5.696 5.612c4.704 4.632 12.34 4.572 16.972-0.128l39.3-39.896c4.632-4.704 4.572-12.34-0.132-16.972l-5.696-5.608zM302.112 100.28c8.624 8.492 28.308 2.616 43.744-13.060l14.032-14.248c15.436-15.676 40.892-15.872 56.568-0.428l473.076 465.936c15.676 15.436 15.868 40.892 0.428 56.568l-14.032 14.252c-15.436 15.672-21.66 34.812-13.82 42.532 7.836 7.72 1.616 26.86-13.824 42.532l-151.564 153.888c-15.44 15.672-40.896 15.868-56.572 0.428l-532.916-524.876c-15.672-15.436-15.868-40.896-0.428-56.572l151.572-153.892c15.432-15.672 35.116-21.548 43.736-13.060zM633.676 741.248c15.676 15.436 41.128 15.244 56.572-0.428l120.692-122.544c15.436-15.672 15.248-41.128-0.428-56.568l-28.496-28.068c-15.676-15.436-41.128-15.244-56.572 0.428l-120.692 122.544c-15.436 15.672-15.248 41.128 0.428 56.568l28.496 28.068zM505.436 614.94c15.672 15.436 41.128 15.244 56.568-0.428l120.692-122.544c15.436-15.672 15.248-41.128-0.428-56.564l-28.496-28.072c-15.676-15.436-41.128-15.244-56.572 0.432l-120.692 122.54c-15.436 15.672-15.244 41.128 0.428 56.568l28.5 28.068zM377.192 488.632c15.672 15.436 41.128 15.244 56.568-0.428l120.692-122.544c15.436-15.676 15.248-41.128-0.428-56.568l-28.496-28.072c-15.676-15.436-41.132-15.244-56.568 0.432l-120.696 122.54c-15.436 15.676-15.244 41.132 0.428 56.568l28.5 28.072zM246.1 359.516c15.672 15.436 41.128 15.248 56.568-0.428l120.696-122.54c15.436-15.676 15.244-41.132-0.428-56.572l-28.5-28.068c-15.672-15.436-41.128-15.248-56.568 0.428l-120.696 122.544c-15.436 15.676-15.244 41.132 0.428 56.572l28.5 28.064zM169.852 330.696c-4.704-4.632-12.34-4.576-16.972 0.128l-39.3 39.896c-4.632 4.704-4.572 12.34 0.128 16.972l5.7 5.612c4.7 4.632 12.336 4.576 16.968-0.128l39.3-39.9c4.632-4.704 4.572-12.34-0.132-16.972l-5.692-5.608zM161.408 322.98c-4.704-4.632-12.34-4.576-16.972 0.128l-39.3 39.896c-4.632 4.704-4.572 12.34 0.132 16.972l5.696 5.608c4.704 4.632 12.34 4.576 16.972-0.128l39.3-39.896c4.632-4.704 4.572-12.34-0.132-16.972l-5.696-5.608z" />
<glyph unicode="&#xe603;" glyph-name="plans" d="M608 776c0-11-9-20-20-20h-152c-11 0-20 9-20 20v52c0 11 9 20 20 20h152c11 0 20-9 20-20v-52zM512 904.16c-30.348 0-54.948-24.1-54.948-53.832 0-0.78 0.016-1.556 0.052-2.328h9.196c-0.040 0.772-0.060 1.548-0.060 2.328 0 24.76 20.488 44.832 45.76 44.832 25.276 0 45.76-20.072 45.76-44.832 0-0.78-0.020-1.556-0.060-2.328h9.196c0.036 0.772 0.052 1.548 0.052 2.328 0 29.732-24.596 53.832-54.948 53.832zM764 848h-120v-122l-260-0.668v122.668h-128c-44.184 0-80-35.816-80-80v-692c0-44.184 35.816-80 80-80h508c44.184 0 80 35.816 80 80v692c0 44.184-35.816 80-80 80zM740 92h-444v60h444v-60zM740 252h-444v60h444v-60zM740 416h-444v60h444v-60zM740 576h-444v60h444v-60z" />
<glyph unicode="&#xe604;" glyph-name="servers" d="M720.036 703.316c0-26.096 21.184-47.28 47.28-47.28s47.28 21.184 47.28 47.28c0 26.096-21.184 47.28-47.28 47.28s-47.28-21.18-47.28-47.28zM720.036 400.72c0-26.092 21.184-47.28 47.28-47.28s47.28 21.188 47.28 47.28c0 26.096-21.184 47.28-47.28 47.28s-47.28-21.184-47.28-47.28zM58.104 277.788c0-41.796 33.852-75.648 75.652-75.648h321.512v-52.196c-9.272-6.244-17.22-14.184-23.46-23.452h-231.864c-26.096 0-47.28-21.188-47.28-47.28 0-26.1 21.184-47.28 47.28-47.28h231.86c15.32-22.884 41.236-37.828 70.74-37.828 29.512 0 55.412 14.944 70.74 37.828h250.772c26.092 0 47.28 21.18 47.28 47.28 0 26.092-21.188 47.28-47.28 47.28h-250.776c-6.244 9.268-14.188 17.212-23.456 23.452v52.196h340.42c41.796 0 75.652 33.852 75.652 75.648v548.46c0 41.796-33.856 75.652-75.652 75.652h-756.492c-41.796 0-75.652-33.852-75.652-75.652v-548.46zM194.276 807.332h635.452c23.064 0 41.608-18.532 41.608-41.608v-124.816c0-23.080-18.548-41.612-41.608-41.612h-635.452c-23.076 0-41.608 18.532-41.608 41.612v124.816c0 23.076 18.532 41.608 41.608 41.608zM194.276 504.736h635.452c23.064 0 41.608-18.532 41.608-41.608v-124.816c0-23.072-18.548-41.608-41.608-41.608h-635.452c-23.076 0-41.608 18.54-41.608 41.608v124.816c0 23.076 18.532 41.608 41.608 41.608z" />
<glyph unicode="&#xe605;" glyph-name="services" d="M680.648 241.672c0 0-9.144 7.476-38.5 20.496-35.9 15.932-42.388 33.588-48.876 55.044l-0.248 0.084c-0.152 4.628-0.424 9.24-0.896 13.828l0.196 0.088c3.548 22.124 7.628 40.5 41.068 61.092 27.332 16.84 35.412 25.472 35.412 25.472-0.652 13.108-7.92 27.776-7.92 27.776s-7.264 14.672-17.304 23.136c0 0-11.756-1.188-41.716-12.728-36.644-14.124-53.732-6.224-73.484 4.348l-0.188-0.096c-3.36 3.152-6.868 6.156-10.456 9.088l0.080 0.24c-13.132 18.16-23.24 34.032-14.164 72.24 7.424 31.232 7.028 43.048 7.028 43.048-9.736 8.816-25.244 14.048-25.244 14.048s-15.508 5.236-28.584 4.12c0 0-7.484-9.156-20.5-38.5-15.928-35.896-33.6-42.396-55.040-48.884l-0.084-0.24c-4.628-0.16-9.24-0.42-13.824-0.884l-0.092 0.184c-22.12 3.54-40.496 7.62-61.092 41.056-16.832 27.332-25.488 35.412-25.488 35.412-13.116-0.66-27.76-7.916-27.76-7.916s-14.676-7.272-23.128-17.304c0 0 1.176-11.76 12.732-41.716 14.108-36.644 6.2-53.724-4.368-73.48l0.1-0.188c-3.156-3.368-6.16-6.868-9.088-10.456l-0.24 0.084c-18.152-13.144-34.024-23.244-72.236-14.168-31.232 7.42-43.064 7.024-43.064 7.024-8.804-9.748-14.032-25.236-14.032-25.236s-5.236-15.524-4.12-28.588c0 0 9.144-7.484 38.5-20.496 35.892-15.928 42.38-33.608 48.876-55.048l0.244-0.080c0.152-4.636 0.416-9.24 0.892-13.828l-0.192-0.084c-3.54-22.128-7.628-40.504-41.056-61.096-27.336-16.836-35.42-25.484-35.42-25.484 0.668-13.112 7.92-27.764 7.92-27.764s7.272-14.672 17.308-23.128c0 0 11.752 1.172 41.712 12.732 36.644 14.112 53.732 6.204 73.48-4.356l0.192 0.092c3.364-3.148 6.872-6.152 10.456-9.084l-0.084-0.248c13.14-18.152 23.244-34.024 14.16-72.232-7.42-31.24-7.020-43.072-7.020-43.072 9.748-8.796 25.236-14.024 25.236-14.024s15.52-5.244 28.592-4.124c0 0 7.484 9.148 20.496 38.504 15.932 35.892 33.608 42.38 55.040 48.876l0.084 0.248c4.64 0.16 9.244 0.42 13.824 0.892l0.092-0.192c22.124-3.548 40.492-7.628 61.092-41.060 16.836-27.344 25.492-35.42 25.492-35.42 13.112 0.668 27.76 7.92 27.76 7.92s14.672 7.268 23.136 17.304c0 0-1.18 11.756-12.736 41.72-14.116 36.648-6.22 53.732 4.356 73.48l-0.1 0.192c3.152 3.364 6.168 6.856 9.088 10.452l0.252-0.084c18.148 13.136 34.024 23.244 72.232 14.168 31.232-7.42 43.064-7.032 43.064-7.032 8.804 9.744 14.040 25.244 14.040 25.244s5.224 15.516 4.112 28.588zM342.556 175.54c-74.504 25.14-114.516 105.92-89.372 180.42 25.148 74.508 105.924 114.516 180.428 89.376 74.508-25.148 114.52-105.92 89.372-180.428-25.144-74.504-105.924-114.516-180.428-89.368zM919.448 700.036c0 0-6.552 2.828-25.744 5.524-23.48 3.304-30.172 12.484-37.488 23.864l-0.152 0.004c-0.856 2.664-1.78 5.292-2.812 7.88l0.096 0.084c-1.6 13.428-2.272 24.772 13.728 42.268 13.088 14.3 16.34 20.648 16.34 20.648-2.544 7.5-9.2 14.816-9.2 14.816s-6.64 7.312-13.872 10.564c0 0-6.628-2.636-22.108-14.296-18.932-14.26-30.164-12.508-43.376-9.636l-0.096-0.084c-2.476 1.272-5.008 2.436-7.576 3.544l0.008 0.152c-10.636 8.372-19.124 15.912-20.184 39.592-0.86 19.36-3.044 26.156-3.044 26.156-7.108 3.508-16.976 3.98-16.976 3.98s-9.872 0.472-17.28-2.34c0 0-2.828-6.556-5.528-25.744-3.308-23.476-12.488-30.172-23.86-37.492l-0.008-0.152c-2.668-0.86-5.296-1.776-7.876-2.804l-0.088 0.088c-13.428-1.604-24.768-2.28-42.26 13.724-14.296 13.080-20.656 16.336-20.656 16.336-7.504-2.552-14.812-9.184-14.812-9.184s-7.312-6.656-10.56-13.876c0 0 2.628-6.636 14.296-22.108 14.256-18.936 12.488-30.164 9.628-43.38l0.084-0.092c-1.268-2.48-2.432-5.004-3.54-7.576l-0.156 0.008c-8.36-10.632-15.904-19.128-39.588-20.18-19.36-0.864-26.16-3.056-26.16-3.056-3.5-7.112-3.968-16.972-3.968-16.972s-0.472-9.876 2.34-17.28c0 0 6.552-2.832 25.74-5.524 23.48-3.308 30.168-12.492 37.492-23.864l0.156-0.004c0.852-2.668 1.768-5.292 2.8-7.88l-0.096-0.084c1.608-13.432 2.276-24.772-13.72-42.268-13.084-14.296-16.348-20.656-16.348-20.656 2.564-7.5 9.196-14.812 9.196-14.812s6.652-7.312 13.884-10.556c0 0 6.628 2.628 22.104 14.292 18.928 14.256 30.164 12.496 43.38 9.636l0.096 0.088c2.468-1.272 5-2.436 7.576-3.544l-0.008-0.16c10.628-8.364 19.12-15.904 20.176-39.588 0.864-19.36 3.052-26.164 3.052-26.164 7.112-3.496 16.976-3.968 16.976-3.968s9.872-0.472 17.28 2.336c0 0 2.828 6.552 5.524 25.748 3.308 23.476 12.492 30.168 23.864 37.484l0.008 0.16c2.66 0.86 5.288 1.776 7.876 2.808l0.088-0.096c13.424 1.6 24.764 2.272 42.26-13.724 14.296-13.084 20.656-16.344 20.656-16.344 7.504 2.556 14.804 9.192 14.804 9.192s7.32 6.648 10.568 13.876c0 0-2.624 6.628-14.296 22.108-14.26 18.94-12.5 30.164-9.636 43.384l-0.088 0.092c1.276 2.476 2.444 5.004 3.556 7.576l0.152-0.008c8.36 10.628 15.904 19.128 39.588 20.184 19.356 0.864 26.16 3.044 26.16 3.044 3.5 7.112 3.968 16.98 3.968 16.98s0.472 9.872-2.34 17.276zM734.124 605.672c-47.42 2.264-84.020 42.536-81.752 89.956 2.264 47.412 42.536 84.012 89.956 81.748 47.416-2.264 84.008-42.536 81.744-89.948-2.268-47.42-42.532-84.020-89.948-81.756z" />
<glyph unicode="&#xe606;" glyph-name="storage" d="M931.304 281.604c3.224-8.192-1.34-14.896-10.14-14.9l-820.204-0.364c-8.8-0.004-13.408 6.712-10.244 14.92l207.676 539.148c3.168 8.208 12.956 15.592 21.756 15.592h377.556c8.8 0 18.636-7.368 21.86-15.556l211.74-538.84zM124 221.076c-22 0-40-18-40-40v-95.28c0-22 18-40 40-40h776c22 0 40 18 40 40v95.28c0 22-18 40-40 40h-776zM846.528 105.992c-13.584 0-24.596 11.888-24.596 26.556 0 14.672 11.012 26.56 24.596 26.56s24.596-11.888 24.596-26.56c0-14.668-11.012-26.556-24.596-26.556z" />
<glyph unicode="&#xe607;" glyph-name="firewall" d="M44 636h344v-112h-344v112zM44 492h184v-120h-184v120zM44 344h304v-120h-304v120zM44 188h220v-112h-220v112zM248 492v-120h172.236c1.392 40 9.424 80 22.992 120h-195.228zM546.708 636h-142.708v-112h51.66c22.008 40 53.216 80 91.048 112zM364 344v-120h80.5c-13.972 40-22.408 80-24.18 120h-56.32zM459.772 188h-167.772v-112h265.464c-40.28 32-73.82 68-97.692 112zM966.58 321.316c-22.4 117.704-94.076 142.228-190.388 257.484s-38.944 242.768-38.944 242.768-205.2-201.084-223.116-426.684c-17.916-225.604 102.66-348.284 244.144-340.864 141.476 7.424 230.7 149.584 208.304 267.296zM748.772 56.296c-62.864-3.304-116.436 51.208-108.472 151.448 7.96 100.244 99.132 189.584 99.132 189.584s-25.488-56.66 17.304-107.868c42.796-51.212 74.64-62.108 84.592-114.404 9.952-52.3-29.688-115.46-92.556-118.76z" />
<glyph unicode="&#xe608;" glyph-name="tasks2" d="M80 842.668c-11 0-20-9-20-20v-169.916c0-11 9-20 20-20h864c11 0 20 9 20 20v169.916c0 11-9 20-20 20h-864zM880 722.724c0-11-9-20-20-20h-436c-11 0-20 9-20 20v29.976c0 11 9 20 20 20h436c11 0 20-9 20-20v-29.976zM80 562.78c-11 0-20-9-20-20v-169.916c0-11 9-20 20-20h864c11 0 20 9 20 20v169.916c0 11-9 20-20 20h-864zM880 442.836c0-11-9-20-20-20h-116c-11 0-20 9-20 20v29.972c0 11 9 20 20 20h116c11 0 20-9 20-20v-29.972zM80 282.892c-11 0-20-9-20-20v-169.916c0-11 9-20 20-20h864c11 0 20 9 20 20v169.916c0 11-9 20-20 20h-864zM880 162.948c0-11-9-20-20-20h-328c-11 0-20 9-20 20v29.964c0 11 9 20 20 20h328c11 0 20-9 20-20v-29.964z" />
<glyph unicode="&#xe609;" glyph-name="servers2" d="M168 824c-22 0-40-18-40-40v-136c0-22 18-40 40-40h688c22 0 40 18 40 40v136c0 22-18 40-40 40h-688zM693.332 676c-19.884 0-36 16.116-36 36s16.116 36 36 36 36-16.116 36-36-16.116-36-36-36zM805.332 676c-19.884 0-36 16.116-36 36s16.116 36 36 36 36-16.116 36-36-16.116-36-36-36zM168 544c-22 0-40-18-40-40v-136c0-22 18-40 40-40h688c22 0 40 18 40 40v136c0 22-18 40-40 40h-688zM693.332 396c-19.884 0-36 16.116-36 36s16.116 36 36 36 36-16.116 36-36c0-19.884-16.116-36-36-36zM805.332 396c-19.884 0-36 16.116-36 36s16.116 36 36 36 36-16.116 36-36c0-19.884-16.116-36-36-36zM168 264c-22 0-40-18-40-40v-136c0-22 18-40 40-40h688c22 0 40 18 40 40v136c0 22-18 40-40 40h-688zM693.332 116c-19.884 0-36 16.116-36 36s16.116 36 36 36 36-16.116 36-36-16.116-36-36-36zM805.332 116c-19.884 0-36 16.116-36 36s16.116 36 36 36 36-16.116 36-36-16.116-36-36-36zM516 768h20v-704h-20v704z" />
<glyph unicode="&#xe60a;" glyph-name="ssh2" d="M120 820c-22 0-40-18-40-40v-676c0-22 18-40 40-40h800c22 0 40 18 40 40v676c0 22-18 40-40 40h-800zM924 140c0-22-18-40-40-40h-728c-22 0-40 18-40 40v604c0 22 18 40 40 40h728c22 0 40-18 40-40v-604zM404.848 331.244c-5.724-5.72-23.136 2.324-38.692 17.884l-141.124 141.124c-15.556 15.556-25.996 30.576-23.192 33.376s18.488-6.936 34.856-21.632l148.796-133.616c16.368-14.704 25.080-31.416 19.356-37.136zM404.848 340.584c5.724-5.72-2.96-22.46-19.296-37.2l-148.456-133.94c-16.332-14.74-32.096-24.4-35.024-21.468-2.928 2.924 7.404 18.052 22.96 33.608l141.124 141.12c15.556 15.56 32.968 23.604 38.692 17.88zM408 168h256v-20h-256v20z" />
<glyph unicode="&#xe60b;" glyph-name="import" d="M511.988 856l-229.808-238.836h145.836v-250.58h167.936v250.58h145.892l-229.856 238.836zM924.748 291.116l-140.708 104.836h-86.748l150.256-127.624h-156.656c-4.52 0-8.552-2.552-10.62-6.532l-36.052-109.376h-264.46l-36.1 109.376c-1.992 3.98-6.1 6.532-10.612 6.532h-156.616l150.296 127.624h-86.792l-140.672-104.836c-20.944-13.84-33.456-45.8-27.844-70.908l24.792-150.456c5.62-25.152 30.544-45.752 55.288-45.752h720.924c24.844 0 49.72 20.6 55.34 45.752l24.788 150.456c5.7 25.144-6.86 57.068-27.804 70.908z" />
<glyph unicode="&#xe60c;" glyph-name="logout" d="M568.556 127.112h-382.396v665.776h382.344v-142.668h94.168v142.668c0 52.316-42.752 95.112-95.116 95.112h-380.444c-52.316 0-95.112-42.796-95.112-95.112v-665.776c0-52.32 42.796-95.112 95.112-95.112h380.444c52.368 0 95.116 42.792 95.116 95.112v95.108h-94.116v-95.108zM948 436.224l-189.224 185.464v-114.128l-428-24.892v-93.332l428-24.444v-114.124l189.224 185.456z" />
<glyph unicode="&#xe60d;" glyph-name="logs" d="M69.336 79.908c0-40.672 32.944-73.616 73.62-73.616h736.18c40.676 0 73.62 32.944 73.62 73.616v644.164c0 40.672-32.944 73.616-73.62 73.616h-73.616v46.012c0 25.396-20.612 46.012-46.012 46.012s-46.012-20.616-46.012-46.012v-46.012h-73.616v46.012c0 25.396-20.616 46.012-46.012 46.012s-46.012-20.616-46.012-46.012v-46.012h-73.616v46.012c0 25.396-20.616 46.012-46.012 46.012s-46.012-20.616-46.012-46.012v-46.012h-73.62v46.012c0 25.396-20.616 46.012-46.008 46.012-25.4 0-46.012-20.616-46.012-46.012v-46.012h-73.62c-40.672 0-73.62-32.944-73.62-73.616v-644.164zM201.852 705.664h14.72v-64.416c0-25.396 20.612-46.012 46.012-46.012 25.396 0 46.008 20.616 46.008 46.012v64.416h73.62v-64.416c0-25.396 20.616-46.012 46.012-46.012s46.012 20.616 46.012 46.012v64.416h73.616v-64.416c0-25.396 20.616-46.012 46.012-46.012s46.012 20.616 46.012 46.012v64.416h73.616v-64.416c0-25.396 20.612-46.012 46.012-46.012s46.012 20.616 46.012 46.012v64.416h14.724c22.448 0 40.488-18.036 40.488-40.496v-195.080c0-22.46-18.040-40.496-40.488-40.496h-618.388c-22.46 0-40.496 18.036-40.496 40.496v195.080c0.004 22.46 18.040 40.496 40.496 40.496z" />
<glyph unicode="&#xe60e;" glyph-name="ostemplates" d="M793.904 140h-696.124l184.16 280h327.804zM764.436 128h-640.872c-28.48 0-51.564-23.516-51.564-52 0-28.476 23.084-52 51.564-52h640.872c28.476 0 51.564 23.524 51.564 52 0 28.484-23.084 52-51.564 52zM704.584 50.736c-12.716 0-23.024 10.304-23.024 23.020s10.308 23.020 23.024 23.020 23.020-10.304 23.020-23.020-10.304-23.020-23.020-23.020zM811.748 863.036c-120.968 48.432-258.32-10.352-306.772-131.332-48.456-120.992 10.356-258.36 131.336-306.788 120.98-48.452 258.336 10.348 306.776 131.328 48.46 120.996-10.36 258.328-131.34 306.792zM647.28 452.288c-105.684 42.328-157.244 162.732-114.928 268.424 42.32 105.684 162.744 157.26 268.44 114.916 105.692-42.312 157.252-162.732 114.936-268.416-42.34-105.696-162.748-157.248-268.448-114.924zM735.024 671.352c-15.116 6.060-32.296-1.3-38.364-16.416-6.060-15.12 1.296-32.288 16.404-38.348 15.116-6.060 32.312 1.304 38.364 16.404 6.032 15.116-1.308 32.284-16.404 38.36zM718.552 630.264c-7.556 3.036-11.224 11.62-8.22 19.184 3.040 7.552 11.632 11.224 19.188 8.216 7.528-3.024 11.208-11.624 8.196-19.188-3.020-7.544-11.616-11.216-19.164-8.212v0zM756.916 726.096c-45.364 18.168-96.864-3.892-115.032-49.24-18.172-45.368 3.896-96.864 49.244-115.040 45.372-18.164 96.86 3.88 115.040 49.244 18.164 45.368-3.868 96.884-49.252 115.036v0zM702.116 589.208c-30.204 12.076-44.924 46.5-32.844 76.684 12.088 30.192 46.484 44.924 76.68 32.848 30.216-12.096 44.928-46.516 32.868-76.708-12.104-30.188-46.516-44.936-76.704-32.824zM833.576 600.104h-0.028c-12.040-30.076-35.14-52.448-62.756-64.388-0.104-0.044-0.164-0.168-0.316-0.228-3.744-1.588-8.060 0.132-9.668 3.896-1.612 3.736 0.14 8.068 3.856 9.66 24.284 10.392 44.62 30.048 55.224 56.544v-0.012c1.52 3.788 5.804 5.632 9.588 4.096 3.772-1.496 5.612-5.788 4.1-9.568v0zM884.22 587.776c3.768-1.52 5.612-5.812 4.104-9.584-18.064-45.104-52.732-78.68-94.164-96.572-0.18-0.080-0.308-0.244-0.488-0.332-3.752-1.588-8.072 0.124-9.676 3.884-1.612 3.744 0.152 8.084 3.864 9.672 38.164 16.344 70.116 47.24 86.76 88.832 1.532 3.776 5.816 5.62 9.6 4.1zM856.824 598.728c3.768-1.512 5.612-5.804 4.12-9.58-15.060-37.596-43.96-65.556-78.468-80.464-0.16-0.096-0.24-0.224-0.396-0.304-3.752-1.584-8.068 0.136-9.672 3.884-1.612 3.748 0.136 8.084 3.892 9.684h-0.032c31.256 13.38 57.372 38.644 70.968 72.68 1.52 3.8 5.816 5.628 9.588 4.1zM687.292 748.564c1.612-3.764-0.136-8.084-3.884-9.708-24.26-10.38-44.604-30.060-55.2-56.516h-0.012c-1.508-3.772-5.792-5.616-9.584-4.096-3.772 1.52-5.616 5.792-4.096 9.584h0.016c12.028 30.056 35.14 52.44 62.76 64.392 0.104 0.044 0.176 0.16 0.308 0.204 3.756 1.608 8.084-0.104 9.692-3.86zM664.068 802.788c1.604-3.744-0.128-8.068-3.86-9.692-38.168-16.34-70.1-47.236-86.764-88.812-1.52-3.788-5.816-5.616-9.584-4.1-3.8 1.504-5.636 5.792-4.104 9.604 18.068 45.1 52.72 78.668 94.168 96.572 0.14 0.072 0.272 0.232 0.452 0.312 3.74 1.584 8.084-0.136 9.692-3.884zM671.792 766.008v-0.048c-31.228-13.36-57.352-38.636-70.96-72.676-1.528-3.792-5.812-5.608-9.592-4.1-3.756 1.536-5.616 5.812-4.084 9.6 15.044 37.58 43.932 65.572 78.46 80.496 0.152 0.064 0.236 0.212 0.388 0.268 3.744 1.608 8.084-0.132 9.692-3.864 1.6-3.76-0.144-8.084-3.884-9.672h-0.020z" />
<glyph unicode="&#xe60f;" glyph-name="pdns" d="M916.58 393.060c0 0-3.824 1.436-14.888 2.44-13.54 1.232-17.624 6.292-22.132 12.608l-0.084-0.004c-0.568 1.5-1.172 2.976-1.836 4.432l0.056 0.048c-1.292 7.644-1.996 14.116 6.672 24.584 7.088 8.552 8.772 12.284 8.772 12.284-1.672 4.22-5.684 8.224-5.684 8.224s-4.008 3.996-8.236 5.656c0 0-3.728-1.692-12.256-8.804-10.436-8.696-16.916-8.008-24.56-6.74l-0.056-0.052c-1.456 0.66-2.936 1.256-4.436 1.82l0.004 0.088c-6.328 4.492-11.4 8.572-12.668 22.092-1.040 11.060-2.48 14.892-2.48 14.892-4.168 1.804-9.824 1.8-9.824 1.8s-5.672-0.008-9.832-1.828c0 0-1.432-3.832-2.44-14.892-1.232-13.532-6.3-17.624-12.6-22.136v-0.084c-1.508-0.568-2.98-1.168-4.432-1.828l-0.052 0.052c-7.644-1.296-14.112-2.004-24.584 6.668-8.552 7.084-12.28 8.768-12.28 8.768-4.228-1.672-8.224-5.672-8.224-5.672s-3.996-4.016-5.652-8.244c0 0 1.692-3.724 8.804-12.252 8.696-10.436 7.996-16.916 6.736-24.564l0.052-0.052c-0.656-1.456-1.252-2.932-1.812-4.436l-0.092 0.004c-4.484-6.32-8.56-11.404-22.092-12.668-11.056-1.040-14.888-2.484-14.888-2.484-1.804-4.172-1.8-9.828-1.8-9.828s0.012-5.664 1.832-9.824c0 0 3.824-1.436 14.888-2.44 13.536-1.232 17.62-6.3 22.132-12.604h0.088c0.568-1.504 1.164-2.98 1.828-4.432l-0.056-0.048c1.296-7.644 2-14.112-6.664-24.584-7.088-8.552-8.78-12.28-8.78-12.28 1.68-4.228 5.684-8.22 5.684-8.22s4.012-3.996 8.244-5.656c0 0 3.724 1.692 12.252 8.804 10.432 8.696 16.916 8 24.56 6.74l0.056 0.052c1.448-0.656 2.932-1.252 4.436-1.816l-0.004-0.088c6.32-4.488 11.396-8.564 12.664-22.096 1.040-11.056 2.48-14.892 2.48-14.892 4.172-1.8 9.828-1.796 9.828-1.796s5.672 0.012 9.832 1.828c0 0 1.432 3.828 2.44 14.896 1.232 13.532 6.3 17.624 12.604 22.128v0.088c1.496 0.576 2.972 1.172 4.428 1.832l0.052-0.056c7.644 1.292 14.112 1.996 24.584-6.668 8.552-7.084 12.28-8.776 12.28-8.776 4.228 1.672 8.22 5.684 8.22 5.684s4 4.008 5.656 8.24c0 0-1.692 3.716-8.808 12.256-8.692 10.436-8 16.912-6.736 24.564l-0.056 0.052c0.664 1.448 1.256 2.928 1.82 4.428h0.088c4.484 6.32 8.568 11.404 22.096 12.668 11.056 1.044 14.892 2.476 14.892 2.476 1.804 4.172 1.792 9.836 1.792 9.836s-0.008 5.656-1.828 9.812zM813.14 333.832c-27.208-0.036-49.288 21.984-49.324 49.196-0.040 27.204 21.988 49.288 49.2 49.324 27.204 0.040 49.284-21.988 49.32-49.196s-21.988-49.288-49.196-49.324zM744.528 111.084c0 0-3.996 5.488-18.44 16.992-17.66 14.080-18.712 24.844-19.2 37.724l-0.124 0.084c0.588 2.592 1.104 5.2 1.504 7.82l0.124 0.024c5.188 11.792 10.12 21.416 31.724 28.024 17.656 5.4 23.396 9.032 23.396 9.032 1.544 7.388-0.372 16.604-0.372 16.604s-1.916 9.216-6.264 15.384c0 0-6.716 1.056-25.060-1.024-22.432-2.536-30.8 4.34-40.248 13.084l-0.124-0.024c-1.416 2.244-2.924 4.42-4.5 6.58l0.080 0.12c-4.672 12.016-7.984 22.316 2.612 42.248 8.664 16.3 10.16 22.932 10.16 22.932-4.132 6.316-11.996 11.476-11.996 11.476s-7.872 5.168-15.308 6.44c0 0-5.5-4.004-17-18.444-14.080-17.652-24.852-18.7-37.72-19.204l-0.084-0.112c-2.6 0.584-5.204 1.1-7.816 1.512l-0.028 0.112c-11.796 5.188-21.42 10.124-28.032 31.72-5.396 17.644-9.036 23.408-9.036 23.408-7.392 1.536-16.596-0.372-16.596-0.372s-9.22-1.916-15.376-6.272c0 0-1.064-6.72 1.024-25.064 2.532-22.428-4.356-30.776-13.096-40.252l0.024-0.112c-2.24-1.416-4.416-2.928-6.568-4.5l-0.124 0.084c-12.004-4.68-22.304-8-42.252 2.6-16.3 8.664-22.932 10.16-22.932 10.16-6.316-4.144-11.476-12-11.476-12s-5.168-7.876-6.444-15.308c0 0 4-5.492 18.44-16.992 17.656-14.084 18.7-24.852 19.204-37.724l0.124-0.084c-0.592-2.592-1.112-5.196-1.516-7.82l-0.116-0.012c-5.184-11.8-10.124-21.42-31.716-28.040-17.656-5.396-23.408-9.028-23.408-9.028-1.536-7.404 0.372-16.604 0.372-16.604s1.916-9.216 6.276-15.384c0 0 6.708-1.048 25.052 1.032 22.428 2.528 30.792-4.356 40.248-13.088l0.12 0.016c1.416-2.236 2.924-4.416 4.5-6.572l-0.080-0.128c4.672-12.004 7.992-22.296-2.612-42.248-8.664-16.296-10.16-22.932-10.16-22.932 4.14-6.308 12-11.472 12-11.472s7.872-5.168 15.316-6.444c0 0 5.488 4.004 16.996 18.448 14.076 17.648 24.852 18.704 37.72 19.196l0.084 0.128c2.596-0.58 5.192-1.1 7.82-1.516l0.020-0.12c11.792-5.188 21.42-10.12 28.028-31.716 5.396-17.648 9.036-23.408 9.036-23.408 7.396-1.532 16.596 0.38 16.596 0.38s9.22 1.912 15.388 6.268c0 0 1.044 6.704-1.032 25.060-2.532 22.436 4.348 30.796 13.092 40.252l-0.028 0.116c2.248 1.416 4.42 2.92 6.58 4.488l0.12-0.080c12.004 4.676 22.308 7.996 42.252-2.604 16.3-8.66 22.932-10.168 22.932-10.168 6.312 4.144 11.476 12.016 11.476 12.016s5.168 7.872 6.444 15.308zM546.824 123.38c-37.804 24.816-48.34 75.568-23.52 113.368 24.8 37.8 75.556 48.332 113.36 23.516 37.8-24.804 48.328-75.556 23.516-113.352-24.804-37.804-75.556-48.34-113.356-23.532zM371.12 894.060c-161.416 0-292.248-130.832-292.248-292.248 0-161.404 130.832-292.244 292.248-292.244 161.408 0 292.248 130.84 292.248 292.244 0 161.42-130.84 292.248-292.248 292.248zM625.176 611.244h-113.052c-1.032 41.76-8.472 81.66-21.636 118.18 25.468 10.616 48.996 24.74 70.428 41.42 38.156-42.82 62.016-98.416 64.26-159.6zM360.688 347.788c-31.328 26.116-57.612 59.992-76.844 99.34 24.68 7.712 50.828 11.948 77.848 12.8v-112.176c-0.34 0-0.664 0.036-1.004 0.036zM381.504 855.828c35.576-29.608 64.592-69.26 84.22-115.5-26.904-9.188-55.46-14.52-85.196-15.468v131.020c0.36-0.016 0.664-0.036 0.976-0.052zM412.916 852.612c52.036-8.656 98.728-32.948 135.072-68.136-19.74-15.148-41.312-27.96-64.624-37.672-17.16 40.676-41.244 76.624-70.448 105.808zM361.692 855.88v-131.024c-29.736 0.968-58.316 6.28-85.184 15.468 19.628 46.244 48.644 85.896 84.212 115.5 0.328 0.020 0.632 0.040 0.972 0.056zM258.856 746.788c-23.28 9.712-44.872 22.528-64.608 37.672 36.332 35.176 83.032 59.484 135.076 68.136-29.232-29.168-53.288-65.116-70.468-105.808zM269.4 722.932c29.076-10.084 60.052-15.964 92.292-16.948v-94.744h-112.732c1.024 39.48 8.012 77.208 20.44 111.692zM361.692 592.388v-113.604c-29.736-0.904-58.488-5.764-85.584-14.496-16.32 38.872-25.96 82.18-27.148 128.1h112.732zM329.324 351.016c-46.628 7.748-88.98 28.048-123.412 57.54 18.58 12.892 38.66 23.772 60.108 32.060 16.44-34.088 37.96-64.356 63.304-89.6zM380.548 347.752v112.176c26.992-0.888 53.176-5.104 77.848-12.82-19.26-39.344-45.516-73.228-76.844-99.32-0.324 0-0.664-0.036-1.004-0.036zM476.22 440.612c21.432-8.284 41.504-19.208 60.096-32.060-34.432-29.456-76.78-49.792-123.4-57.54 25.336 25.248 46.84 55.516 63.304 89.6zM466.132 464.288c-27.108 8.732-55.864 13.592-85.584 14.496v113.604h112.724c-1.18-45.92-10.828-89.228-27.14-128.1zM380.548 611.244v94.74c32.22 0.984 63.192 6.848 92.284 16.928 12.412-34.488 19.408-72.216 20.436-111.692l-112.72 0.024zM181.332 770.844c21.452-16.684 44.984-30.804 70.42-41.42-13.172-36.52-20.604-76.416-21.644-118.18h-113.056c2.264 61.184 26.116 116.78 64.28 159.6zM117.052 592.388h113.056c1.168-48.168 11.24-93.664 28.336-134.56-23.892-9.316-46.152-21.728-66.712-36.42-44.264 44.080-72.204 104.308-74.68 170.98zM550.492 421.444c-20.548 14.656-42.808 27.084-66.724 36.4 17.124 40.896 27.176 86.376 28.356 134.564h113.052c-2.468-66.692-30.424-126.92-74.684-170.964z" />
<glyph unicode="&#xe610;" glyph-name="firewall2" d="M120 484h248v-100h-248v100zM380 484h252v-100h-252v100zM644 484h272v-100h-272v100zM596 364h284v-108h-284v108zM252 364h332v-108h-332v108zM92 364h148v-108h-148v108zM464 236h480v-100h-480v100zM56 236h396v-100h-396v100zM76 116h292v-104h-292v104zM380 116h252v-104h-252v104zM644 116h280v-104h-280v104zM620.312 484c4.704 10.4 12.188 19.676 12.728 21.112 0.86 2.296 0.86 10.912 0.572 13.496-0.284 2.584-11.768 9.476-14.64 9.76s-4.304-4.592-8.328-4.88c-4.016-0.288-21.532 10.624-25.264 13.496s-5.452 9.76-10.62 14.928-5.744 1.148-13.78 4.308-33.88 12.632-53.692 20.672c-19.808 8.040-21.532 19.308-21.82 27.276-0.284 7.968-12.056 19.524-17.58 27.848-5.52 8.328-6.54 19.812-8.548 17.228s10.336-32.732 8.328-33.592c-2.012-0.86-6.32 8.328-12.064 15.792s6.032 3.444-12.344 39.62 5.744 54.624 6.892 73.5 15.504-6.892 8.040 5.168 0.576 37.324-5.168 46.512-38.472-10.336-38.472-10.336c0.86 8.9 28.712 24.116 48.808 38.184s32.372 3.16 48.52-2.008c16.152-5.168 17.228-3.444 11.772 1.724s2.296 7.752 14.928 5.744 16.080-17.228 35.312-15.792c19.24 1.436 2.012-3.732 4.592-8.612 2.584-4.88-2.868-4.308-15.5-12.92s0.284-8.612 22.68-24.98 15.504 10.912 13.208 22.968 16.364 2.584 16.364 2.584c13.78-9.188 11.236-0.508 21.284-3.668s37.284-26.192 37.284-26.192c-34.164-18.664-12.632-20.672-6.892-24.98s-11.768-12.632-11.768-12.632c-7.176 7.176-8.324-0.288-12.916-2.872s-0.288-9.188-0.288-9.188c-23.756-3.732-18.376-28.712-18.084-34.74 0.284-6.028-15.22-15.216-19.24-23.832s10.336-27.276 2.872-28.424-14.928 28.136-55.124 17.228c-12.116-3.288-39.048-17.228-24.692-45.652s38.184 8.040 46.224 4.020-2.296-22.108-0.572-22.396c1.72-0.288 22.68-0.788 23.828-25.264s31.868-22.396 38.472-22.968 28.712 18.088 31.872 18.948c3.156 0.86 15.788 11.484 43.352-4.308s41.632-13.496 51.104-20.096 2.872-19.812 11.768-24.116c8.904-4.308 44.504 1.436 53.408-13.208 0.692-1.14 1.020-2.668 1.092-4.46h48.96c8.312 27.208 12.82 56.072 12.82 86 0 162.372-131.628 294-294 294-162.368 0-294-131.628-294-294 0-29.924 4.5-58.796 12.812-86h305.5zM664.908 588.088c-4.020-1.148-12.344-8.612-32.732 3.444s-34.452 9.76-36.176 11.772c0 0-1.724 4.88 7.18 5.744 18.272 1.768 41.344-16.94 46.508-17.228 5.172-0.288 7.752 5.168 16.94 2.208 9.188-2.956 2.296-4.792-1.72-5.94zM620.116 797.392c-7.18 0.288-24.076 2.072-20.96 5.168 12.132 12.060-4.592 15.504-14.928 16.364s-14.64 6.604-9.472 7.176 25.84-0.288 29.284-3.16 22.108-10.336 23.256-15.792 0-10.044-7.18-9.756zM604.612 852.804c7.752 6.892 29.576-2.296 42.208-3.732s27.272-11.196 27.564-22.804c0.284-11.6 13.78-22.272 8.040-26.868s-34.64 16.484-40.196 21.248c-24.116 20.672-37.040 13.78-42.104 17.228-5.064 3.444-3.264 8.036 4.488 14.928zM572.568 840.744c1.256 1.672 0.324 4.452 1.904 6.028 4.304 4.308 25.552 10.336 21.4-1.436-4.156-11.772-23.984-12.92-27.14-10.624-2.008 1.46 1.652 3.132 3.836 6.032z" />
<glyph unicode="&#xe611;" glyph-name="performance" d="M280 12c0-6.628-5.372-12-12-12h-140c-6.628 0-12 5.372-12 12v268c0 6.628 5.372 12 12 12h140c6.628 0 12-5.372 12-12v-268zM492 12c0-6.6-5.4-12-12-12h-148c-6.6 0-12 5.4-12 12v448c0 6.6 5.4 12 12 12h148c6.6 0 12-5.4 12-12v-448zM712 12c0-6.628-5.372-12-12-12h-148c-6.628 0-12 5.372-12 12v372c0 6.628 5.372 12 12 12h148c6.628 0 12-5.372 12-12v-372zM932 12c0-6.628-5.372-12-12-12h-148c-6.628 0-12 5.372-12 12v652c0 6.628 5.372 12 12 12h148c6.628 0 12-5.372 12-12v-652zM830.332 767.376c7.596-7.952 13.852-5.46 13.896 5.54l0.456 118.144c0.044 11-8.92 20.068-19.92 20.148l-112.836 0.836c-11 0.084-13.78-6.356-6.184-14.312l18.172-19.008c7.596-7.952 6.876-20.184-1.612-27.184l-219.176-180.796c-8.484-7-21.156-5.784-28.156 2.7l-46.292 56.12c-7 8.484-19.668 9.7-28.156 2.7l-30.856-25.452c-8.484-7-15.164-13.048-14.84-13.44s-6.356-6.44-14.84-13.44l-241.556-199.252c-8.484-7-9.7-19.668-2.7-28.156l25.452-30.852c7-8.488 19.668-9.704 28.156-2.704l241.552 199.252c8.484 7 21.156 5.784 28.156-2.7l45.116-54.696c7-8.484 19.668-9.7 28.156-2.7l30.86 25.452c8.488 7 15.428 12.728 15.428 12.728s6.94 5.728 15.428 12.728l223.688 184.52c8.488 7 21.648 6.22 29.248-1.732l23.36-24.444z" />
<glyph unicode="&#xe612;" glyph-name="bandwidth" d="M428.232 305.32c-31.216-54.116-10.216-98.632 33.068-123.616 43.296-24.96 92.384-20.984 123.592 33.136 31.24 54.056 228.324 536.812 211.184 546.72-17.096 9.908-336.62-402.14-367.844-456.24zM512.924 649.144c19.812 0 39.144-1.724 57.964-4.892 19.792 24.796 42.016 52.12 63.592 78.132-38.544 11.176-79.216 17.244-121.56 17.244-253.66 0-452.408-213.9-452.408-486.968 0-16.828 0.772-33.616 2.22-50.008 2.212-24.876 24.432-43.188 49.084-41.024 24.884 2.272 43.252 24.212 41.032 49.084-1.224 13.72-1.852 27.812-1.852 41.944 0.004 222.308 159.020 396.488 361.928 396.488zM839.508 592.636c-12.612-33.928-25.956-68.5-37.732-98.4 46.036-66.492 73.076-149.884 73.076-241.58 0-14.356-0.616-28.78-1.9-42.764-2.252-24.876 16.060-46.876 40.952-49.172 1.392-0.132 2.74-0.176 4.152-0.176 23.104 0 42.856 17.672 44.976 41.128 1.524 16.752 2.296 33.892 2.296 50.984 0.004 133.516-47.576 252.844-125.82 339.98z" />
<glyph unicode="&#xe613;" glyph-name="config" d="M201.728 599.244c40.848 34.44 74.692 10.736 119.868-46.084 5.12-6.36 11.936 1.1 15.788 4.756 3.848 3.704 63.5 61.948 66.388 64.66 2.924 2.8 6.428 8.028 1.788 13.872-4.632 5.84-21.6 29.692-32.488 45.128-79.072 112.364 216.296 188.568 170.904 189.752-23.052 0.664-115.716 1.808-129.532 0.24-56.108-6.456-126.56-63.42-162.028-89.928-46.352-34.636-63.72-54.732-66.56-57.54-13.116-12.496-2.1-41.192-25.888-63.848-25.148-23.948-40.808-5.848-55.372-19.72-7.252-6.936-27.416-23.328-33.232-28.888-5.772-5.504-6.82-14.868-0.92-22.372 0 0 55.236-66.324 59.912-72.168 4.64-5.848 17.104-10.788 24.84-3.372 7.744 7.36 27.596 26.316 30.964 29.548 3.412 3.184-2.184 40.996 15.568 55.964v0zM451.392 574.732c-5.248 6.604-11.716 6.744-17.36 1.332l-62.752-59.444c-4.904-4.748-5.56-13.492-1.14-19l362.708-448.384c8.436-10.652 23.132-11.752 32.884-2.536l42.464 38.584c9.668 9.22 10.676 25.38 2.24 35.956l-359.044 453.492zM935.020 765.576c-3.228 23.464-14.428 18.524-20.252 8.548-5.72-9.928-31.516-52.312-42.104-71.456-10.492-19.1-36.304-56.576-84.576-19.572-50.208 38.58-32.712 65.52-24.016 83.62 8.8 18.196 35.788 69.12 39.72 75.532 3.84 6.42-0.716 25.040-16.236 17.252-15.596-7.84-110.32-48.748-123.492-107.376-13.42-59.72 11.288-113.020-37.168-165.996l-62.6-70.42 62.86-70.584 72.328 74.636c17.268 18.816 54.052 37.1 87.38 28.88 71.42-17.576 110.34 11.6 133.86 59.724 21.072 43.092 17.584 133.74 14.296 157.212zM184.504 116.512c-9.096-9.984-9.096-26.132 0-36.064l41.588-44.204c9.088-9.92 23.524-5.74 32.62 4.196l214.596 229.244-65.776 81.376-223.028-234.548z" />
<glyph unicode="&#xe614;" glyph-name="cpu" d="M177.408 186.344c0-42.504 34.428-76.932 76.936-76.932h19.232v-67.32c0-26.544 21.548-48.088 48.084-48.088 26.54 0 48.084 21.548 48.084 48.088v67.32h96.168v-67.32c0-26.544 21.548-48.088 48.084-48.088 26.544 0 48.084 21.548 48.084 48.088v67.32h96.172v-67.32c0-26.544 21.544-48.088 48.084-48.088 26.536 0 48.084 21.548 48.084 48.088v67.32h19.232c42.504 0 76.932 34.428 76.932 76.932v19.232h67.32c26.544 0 48.088 21.552 48.088 48.084 0 26.544-21.548 48.084-48.088 48.084h-67.32v96.172h67.32c26.544 0 48.088 21.54 48.088 48.084 0 26.54-21.548 48.084-48.088 48.084h-67.32v96.168h67.32c26.544 0 48.088 21.544 48.088 48.084s-21.548 48.084-48.088 48.084h-67.32v19.232c0 42.504-34.428 76.936-76.932 76.936h-19.232v67.32c0 26.54-21.552 48.084-48.084 48.084-26.544 0-48.084-21.548-48.084-48.084v-67.32h-96.172v67.32c0 26.54-21.54 48.084-48.084 48.084-26.54 0-48.084-21.548-48.084-48.084v-67.32h-96.164v67.32c0 26.54-21.544 48.084-48.084 48.084s-48.084-21.548-48.084-48.084v-67.32h-19.232c-42.504 0-76.936-34.428-76.936-76.936v-19.232h-67.32c-26.54 0-48.084-21.548-48.084-48.084 0-26.54 21.548-48.084 48.084-48.084h67.32v-96.168h-67.32c-26.54 0-48.084-21.548-48.084-48.084 0-26.544 21.548-48.084 48.084-48.084h67.32v-96.172h-67.32c-26.54 0-48.084-21.544-48.084-48.084 0-26.536 21.548-48.084 48.084-48.084h67.32v-19.232zM658.252 547.936v-203.872c0-23.456-18.86-42.316-42.316-42.316h-203.872c-23.472 0-42.32 18.86-42.32 42.316v203.872c0 23.472 18.848 42.32 42.32 42.32h203.872c23.46-0.004 42.316-18.848 42.316-42.32z" />
<glyph unicode="&#xe615;" glyph-name="dashboard" d="M512 894c-248.528 0-450-201.472-450-450s201.472-450 450-450c248.528 0 450 201.472 450 450s-201.472 450-450 450zM512 106.5c-186.392 0-337.5 151.096-337.5 337.5 0 186.392 151.108 337.5 337.5 337.5 186.404 0 337.5-151.108 337.5-337.5 0-186.404-151.096-337.5-337.5-337.5zM455.752 669c0 31.072 25.176 56.252 56.252 56.252s56.252-25.176 56.252-56.252-25.18-56.252-56.256-56.252c-31.072 0-56.248 25.18-56.248 56.252zM624.5 612.748c0 31.072 25.176 56.252 56.252 56.252s56.252-25.176 56.252-56.252-25.176-56.252-56.252-56.252-56.252 25.18-56.252 56.252zM287 612.748c0 31.072 25.176 56.252 56.252 56.252s56.252-25.176 56.252-56.252-25.176-56.252-56.252-56.252-56.252 25.18-56.252 56.252zM455.752 275.248c0 0-27.916-119.916 96.5-56.252 16 56.252 16 56.252 16 56.252l75.748 249.252-188.248-249.252z" />
<glyph unicode="&#xe616;" glyph-name="databackup" d="M946.52 274.72c16.84-158.040-116.68-268.16-251.44-254.84-139.52 13.8-246.48 150.564-183.48 322.8 21.36-2.44 39.324-8.28 61.164-10.2-66.52-132.084 29.56-258.92 152.916-254.84 87.88 2.916 166.76 78 163.084 176.68-3.64 97.52-70.96 149.36-166.48 163.12-7.884-13.68-1.204-41.884-3.404-61.16-7.596-13.12-21.16 9.956-30.596 16.956-30.404 22.6-70.084 49.564-101.92 71.36 38.040 39 87.84 66.2 129.12 101.96 7.88-15.92 1.16-46.4 3.4-67.96 125.356-17.476 214.676-82.276 227.636-203.876zM814 716.44c0.32-39-42.6-86.68-74.76-98.52-12.596-4.68-28.756-3.12-40.756-6.8-20.16-6.2-33.404-23.28-50.96-30.6-118.28-49.2-363.080-23.44-462.12 23.8-40.32 19.2-95.44 59.16-95.12 112.12 0.24 48.44 46.24 83.8 78.12 101.92 62.84 35.76 155 48.76 231.080 54.4 78.16 5.76 183.2-0.040 261.64-23.8 51.676-15.68 152.356-63.12 152.876-132.52zM810.6 662.080c6.24-37.96 4.88-97.72 0-135.92-7.524 2.64-13.244 7.12-23.76 6.8 1.56 26.48-6.32 43.52-17 57.76 12.16 25.2 40.2 34.56 40.76 71.36zM559.16 519.36c11.12-7.8-12.52-14.68-20.36-23.76-17.16-19.84-32.68-53.8-6.8-84.96-14.2-3.92-19.12 0.040-34-3.404-15.36-3.56-28.28-18-40.76-20.4-18.64-3.6-50.72 1.56-78.16 3.4-106 7.16-261.96 53.12-285.4 132.52-11.96 40.44 1.84 87.6-3.4 132.52 64.36-135.076 280.92-156.356 468.88-135.916zM491.2 53.84c-139.8-2.040-310.28 20.36-377.16 98.56-30.48 35.64-23.96 89.64-23.76 166.48 53.44-108.48 191.96-131.956 343.16-142.72 8.8-49 43.6-90.040 57.76-122.32zM440.24 342.68c-10.6-34.72-16.28-74.32-13.6-122.32-99.24 4.92-225.68 28.84-288.8 78.16-48.16 37.56-53.72 90.2-47.56 190.28 50.96-114.4 196.36-134.36 349.96-146.12z" />
<glyph unicode="&#xe617;" glyph-name="serverloads" d="M68-4v350.452l107.548 33.312 157.844 143.924 214.632-74.628 53.308 135.692 342.668 192.128v-780.88zM820.112 785.136c7.464-8.080 13.756-5.692 13.988 5.304l2.464 118.12c0.232 11-8.58 20.216-19.576 20.484l-112.812 2.752c-10.996 0.268-13.888-6.124-6.42-14.204l17.844-19.316c7.464-8.080 6.532-20.3-2.072-27.156l-222.216-177.048c-8.604-6.856-21.252-5.424-28.104 3.18l-45.328 56.9c-6.856 8.604-19.5 10.036-28.104 3.18l-31.284-24.924c-8.604-6.856-15.384-12.788-15.068-13.188 0.316-0.396-6.464-6.332-15.068-13.184l-244.904-195.124c-8.604-6.856-10.032-19.5-3.18-28.104l24.924-31.28c6.852-8.604 19.5-10.032 28.104-3.18l244.9 195.12c8.604 6.856 21.252 5.424 28.104-3.18l44.18-55.452c6.856-8.604 19.5-10.036 28.104-3.18l31.288 24.924c8.604 6.856 15.644 12.464 15.644 12.464s7.040 5.608 15.64 12.464l226.792 180.696c8.6 6.856 21.748 5.852 29.212-2.228l22.948-24.84z" />
<glyph unicode="&#xe618;" glyph-name="feedback" d="M334.212 560.448c29.448 0 53.336-23.856 53.336-53.336 0-29.484-23.888-53.336-53.336-53.336s-53.332 23.856-53.332 53.336c-0.004 29.48 23.884 53.336 53.332 53.336zM512 560.448c29.444 0 53.332-23.856 53.332-53.336 0-29.484-23.892-53.336-53.332-53.336-29.444 0-53.336 23.856-53.336 53.336s23.888 53.336 53.336 53.336zM689.784 560.448c29.444 0 53.336-23.856 53.336-53.336 0-29.484-23.892-53.336-53.336-53.336s-53.336 23.856-53.336 53.336c0 29.48 23.892 53.336 53.336 53.336zM814.236 844.908h-604.476c-58.816 0-106.672-47.856-106.672-106.672v-426.688c6.052-77.584 128.24-71.112 128.24-71.112l-13.568-177.344 312.012 177.344h284.46c58.824 0 106.676 47.856 106.676 106.672v391.128c0.004 58.812-47.848 106.672-106.672 106.672zM849.788 347.104c0-19.584-15.968-35.56-35.556-35.56h-320.012l-205.344-141.784 32.584 141.784h-111.7c-19.592 0-35.556 15.972-35.556 35.56v391.132c0 19.592 15.964 35.556 35.556 35.556h604.472c19.584 0 35.556-15.964 35.556-35.556v-391.132z" />
<glyph unicode="&#xe619;" glyph-name="uniE619" d="M896 608v216h-768v-216h388v-64h-388v-216h388v-64h-388v-216h768v216h-360v64h360v216h-360v64h360zM805.332 188c19.884 0 36-16.116 36-36s-16.116-36-36-36-36 16.116-36 36 16.116 36 36 36zM693.332 188c19.884 0 36-16.116 36-36s-16.116-36-36-36-36 16.116-36 36 16.116 36 36 36zM805.332 468c19.884 0 36-16.116 36-36s-16.116-36-36-36-36 16.116-36 36c0 19.884 16.116 36 36 36zM693.332 468c19.884 0 36-16.116 36-36s-16.116-36-36-36-36 16.116-36 36c0 19.884 16.116 36 36 36zM805.332 748c19.884 0 36-16.116 36-36s-16.116-36-36-36-36 16.116-36 36 16.116 36 36 36zM693.332 748c19.884 0 36-16.116 36-36s-16.116-36-36-36-36 16.116-36 36 16.116 36 36 36z" />
<glyph unicode="&#xe61a;" glyph-name="ssh" d="M872.228 824h-720.456c-46.268 0-83.772-38.792-83.772-86.644v-586.712c0-47.852 37.504-86.644 83.772-86.644h720.452c46.264 0 83.772 38.792 83.772 86.644v586.712c0.004 47.852-37.504 86.644-83.768 86.644zM207.64 198.332l-19.64 13.668 142 175-150.716 161.656 20.716 21.344 202.604-181.864-194.964-189.804zM676 200h-272v40h272v-40z" />
<glyph unicode="&#xe61b;" glyph-name="help" d="M565.924 663.528c0 0-1.728 0-110.5 0-108.788 0-110.5-110.5-110.5-110.5v-55.252h110.5c0 0-1.716 55.252 55.252 55.252 56.976 0 55.252-55.252 55.252-55.252-63.872 0-110.5-110.5-110.5-110.5h110.5c0 48.344 55.252 55.252 55.252 55.252s55.252 6.908 55.252 110.5c-0.008 103.596-110.508 110.5-110.508 110.5zM510.676 884.528c-244.092 0-442-197.908-442-442 0-244.084 197.908-441.988 442-441.988s442 197.908 442 441.988c0 244.092-197.908 442-442 442zM510.676 46.044c-218.936 0-396.5 177.548-396.5 396.484 0 218.932 177.568 396.5 396.5 396.5 218.928 0 396.5-177.568 396.5-396.5 0-218.94-177.572-396.484-396.5-396.484zM455.424 221.544h110.5v110.488h-110.5v-110.488z" />
<glyph unicode="&#xe61c;" glyph-name="ssl" d="M785.888 507.224c-27.388 0-54.776 0-54.776 0s0 54.776 0 164.332-109.556 219.108-219.112 219.108-219.108-109.556-219.108-219.108 0-164.332 0-164.332-27.388 0-54.78 0c-27.388 0-54.776-27.392-54.776-54.776s0-356.052 0-383.444c0-27.384 27.388-54.772 54.776-54.772 27.392 0 520.388 0 547.776 0 27.392 0 54.776 27.392 54.776 54.772 0 27.396 0 356.060 0 383.444s-27.388 54.776-54.776 54.776zM621.556 397.668h-328.664v-54.776h328.664v-54.776h-328.664v-54.776h328.664v-54.776h-328.664v-54.776h328.664v-54.78h-383.444v383.444h383.444v-54.784zM621.556 507.224h-219.108c0 0 0 109.556 0 164.332s54.772 109.552 109.552 109.552c54.772 0 109.556-54.776 109.556-109.556s0-164.328 0-164.328z" />
<glyph unicode="&#xe61d;" glyph-name="filemanager" d="M907.468 590.424h-790.912c-40.148 0-42.152-21.372-39.972-47.476l35.988-429.46c2.18-26.12 7.836-47.492 47.924-47.492h703.008c40.888 0 45.732 21.372 47.912 47.472l35.988 429.472c2.196 26.116 0.196 47.484-39.936 47.484zM878.428 695.312c-4.836 20.98-28.556 38.14-52.732 38.14h-297.108c-24.16 0-57.94 15.144-75.048 33.64l-25.976 28.064c-17.116 18.504-50.888 33.648-75.052 33.648h-141.952c-24.164 0-46.12-21.32-48.78-47.388l-12.74-124.248h738.18l-8.792 38.144z" />
<glyph unicode="&#xe61e;" glyph-name="vs" d="M636 595.624c0-21.884-14.608-39.624-32.632-39.624h-198.736c-18.024 0-32.632 17.74-32.632 39.624v4.752c0 21.884 14.608 39.624 32.632 39.624h198.736c18.024 0 32.632-17.74 32.632-39.624v-4.752zM636 477.296c0-20.596-14.608-37.296-32.632-37.296h-198.736c-18.024 0-32.632 16.696-32.632 37.296v5.412c0 20.596 14.608 37.296 32.632 37.296h198.736c18.024 0 32.632-16.696 32.632-37.296v-5.412zM691.368 744h-370.736c-18.024 0-32.632-14.608-32.632-32.628v-562.744c0-18.020 14.608-32.628 32.632-32.628h370.736c18.024 0 32.632 14.608 32.632 32.628v562.744c0 18.020-14.608 32.628-32.632 32.628zM507.632 170.944c-34.24 0-62 27.756-62 62s27.76 62 62 62 62-27.756 62-62-27.76-62-62-62zM672 436.628c0-18.020-14.608-32.628-32.632-32.628h-270.736c-18.024 0-32.632 14.608-32.632 32.628v218.744c0 18.020 14.608 32.628 32.632 32.628h270.736c18.024 0 32.632-14.608 32.632-32.628v-218.744zM525.34 232.944c0-16.407-13.301-29.708-29.708-29.708s-29.708 13.301-29.708 29.708c0 16.407 13.301 29.708 29.708 29.708s29.708-13.301 29.708-29.708zM240 566.848c0 9.476-7.68 17.152-17.152 17.152h-141.696c-9.472 0-17.152-7.676-17.152-17.152v-113.7c0-9.468 7.68-17.148 17.152-17.148h141.696c9.472 0 17.152 7.68 17.152 17.148v113.7zM224 467.604c0-10.828-7.68-19.604-17.156-19.604h-105.688c-9.476 0-17.156 8.776-17.156 19.604v4.792c0 10.828 7.68 19.604 17.156 19.604h105.692c9.476 0 17.156-8.776 17.156-19.604v-4.792zM224 532.828c0-11.504-7.68-20.828-17.156-20.828h-105.688c-9.476 0-17.156 9.324-17.156 20.828v2.344c0 11.504 7.68 20.828 17.156 20.828h105.692c9.476 0 17.156-9.324 17.156-20.828v-2.344zM154.856 374.66c-18 0-32.588-14.588-32.588-32.584 0-18.004 14.592-32.592 32.588-32.592s32.588 14.588 32.588 32.592c0.004 17.996-14.588 32.584-32.588 32.584zM154.856 326.456c-8.624 0-15.616 6.992-15.616 15.616 0 8.62 6.992 15.612 15.616 15.612s15.616-6.992 15.616-15.612c0-8.624-6.992-15.616-15.616-15.616zM268 590.848c0 9.472-7.68 17.152-17.152 17.152h-193.696c-9.472 0-17.152-7.68-17.152-17.152v-297.696c0-9.472 7.68-17.152 17.152-17.152h193.696c9.472 0 17.152 7.68 17.152 17.152v297.696zM256 311.58c0-8.604-6.976-15.58-15.58-15.58h-176.84c-8.604 0-15.58 6.972-15.58 15.58v268.84c0 8.604 6.976 15.58 15.58 15.58h176.84c8.604 0 15.58-6.976 15.58-15.58v-268.84zM948 566.848c0 9.472-7.68 17.152-17.152 17.152h-141.696c-9.472 0-17.152-7.676-17.152-17.152v-113.7c0-9.468 7.68-17.148 17.152-17.148h141.696c9.472 0 17.152 7.68 17.152 17.148v113.7zM932 467.604c0-10.828-7.68-19.604-17.156-19.604h-105.688c-9.476 0-17.156 8.776-17.156 19.604v4.792c0 10.828 7.68 19.604 17.156 19.604h105.688c9.476 0 17.156-8.776 17.156-19.604v-4.792zM932 532.828c0-11.504-7.68-20.828-17.156-20.828h-105.688c-9.476 0-17.156 9.324-17.156 20.828v2.344c0 11.504 7.68 20.828 17.156 20.828h105.688c9.476 0 17.156-9.324 17.156-20.828v-2.344zM862.86 374.66c-18 0-32.592-14.588-32.592-32.584 0-18.004 14.592-32.592 32.592-32.592 17.996 0 32.584 14.588 32.584 32.592 0 17.996-14.588 32.584-32.584 32.584zM862.86 326.456c-8.624 0-15.616 6.992-15.616 15.616 0 8.62 6.992 15.612 15.616 15.612 8.62 0 15.612-6.992 15.612-15.612 0-8.624-6.992-15.616-15.612-15.616zM976 590.848c0 9.472-7.68 17.152-17.152 17.152h-193.696c-9.472 0-17.152-7.68-17.152-17.152v-297.696c0-9.472 7.68-17.152 17.152-17.152h193.696c9.472 0 17.152 7.68 17.152 17.152v297.696zM964 311.58c0-8.604-6.976-15.58-15.58-15.58h-176.844c-8.6 0-15.58 6.972-15.58 15.58v268.84c0 8.604 6.976 15.58 15.58 15.58h176.844c8.6 0 15.58-6.976 15.58-15.58v-268.84z" />
<glyph unicode="&#xe61f;" glyph-name="ippool" d="M838.272 404h-656.544c-42.512 0-76.976-33.484-76.976-76 0-42.508 34.464-76 76.976-76h656.548c42.512 0 76.976 33.492 76.976 76 0 42.516-34.468 76-76.98 76zM810.232 297.044c-16.448 0-29.784 13.336-29.784 29.784 0 16.452 13.336 29.788 29.784 29.788 16.452 0 29.788-13.336 29.788-29.788 0-16.448-13.336-29.784-29.788-29.784zM838.272 632h-656.544c-42.512 0-76.976-35.492-76.976-78 0-42.512 34.464-78 76.976-78h656.548c42.512 0 76.976 35.488 76.976 78 0 42.508-34.468 78-76.98 78zM810.232 523.436c-16.448 0-29.784 13.336-29.784 29.788s13.336 29.788 29.784 29.788c16.452 0 29.788-13.336 29.788-29.788s-13.336-29.788-29.788-29.788zM488 192h52v-104h-52v104zM612 35.072c0-8.324-6.748-15.072-15.072-15.072h-165.86c-8.324 0-15.072 6.748-15.072 15.072v65.86c0 8.324 6.748 15.072 15.072 15.072h165.86c8.324 0 15.072-6.748 15.072-15.072v-65.86zM838.272 856h-656.544c-42.512 0-76.976-33.488-76.976-76 0-42.508 34.464-76 76.976-76h656.548c42.512 0 76.976 33.492 76.976 76 0 42.512-34.468 76-76.98 76zM810.232 749.832c-16.448 0-29.784 13.336-29.784 29.788s13.336 29.788 29.784 29.788c16.452 0 29.788-13.336 29.788-29.788s-13.336-29.788-29.788-29.788zM376 40h-289.368c-11.248 0-22.632 11.568-22.632 23.6v1.692c0 12.036 11.384 22.708 22.632 22.708h289.368zM648 40h287.776c11.172 0 20.224 11.568 20.224 23.6v1.692c0 12.036-9.052 22.708-20.224 22.708h-287.776z" />
<glyph unicode="&#xe620;" glyph-name="users" d="M963.396 48.64c0 0-1.732 207.416-11.972 224.744-15.252 25.868-50.668 43.596-116.444 71.084-65.56 27.4-86.556 14.568-86.556 64.040 0 29.752 20.016 20.028 28.824 74.436 3.624 22.592 21.296 0.404 24.708 51.904 0 20.548-9.628 25.68-9.628 25.68s4.864 30.412 6.792 53.796c2.392 29.184-14.704 104.464-105.736 104.464-91.016 0-108.040-75.332-105.696-104.464 1.9-23.384 6.764-53.796 6.764-53.796s-9.624-5.132-9.624-25.68c3.392-51.544 21.064-29.356 24.748-51.904 8.752-54.412 28.78-44.688 28.78-74.436 0-33.644-9.732-19.128-36.568-37.996 143.224-71.72 162.448-86.332 162.448-150.428v-171.436h199.16zM531.24 319.624c-87.488 36.512-115.38 31.376-115.38 97.368 0 39.608 26.7 26.7 38.42 99.284 4.812 30.104 28.464 0.492 32.932 69.18 0 27.412-12.864 34.22-12.864 34.22s6.536 40.536 9.108 71.748c3.176 38.812-19.628 139.244-140.98 139.244-121.34 0-144.108-100.392-140.924-139.244 2.568-31.212 9.064-71.748 9.064-71.748s-12.824-6.808-12.824-34.22c4.556-68.74 28.12-39.12 32.984-69.18 11.712-72.584 38.416-59.632 38.416-99.284 0-65.992-27.992-60.856-115.38-97.368-26.656-11.136-74.532-28.428-74.532-69.888v-201.096h614.188c0 0 0 135.264 0 160.736 0 37.88-74.568 73.552-162.228 110.248z" />
<glyph unicode="&#xe621;" glyph-name="tasks" d="M184.332 784.684c-22 0-40-18-40-40v-666.016c0-22 18-40 40-40h643.332c22 0 40 18 40 40v666.016c0 22-18 40-40 40h-643.332zM806.428 143.192c0-22-18-40-40-40h-520.86c-22 0-40 18-40 40v536.972c0 22 18 40 40 40h520.86c22 0 40-18 40-40v-536.972zM673.108 700.028c-12.44 15.488-23.844 34.428-25.868 42.172s-3.24 32.016-3.24 54.016v47.784c0 22-18.888 40-40.888 40h-173.28c-22 0-41.832-18-41.832-40v-47.788c0-22-1.036-46.336-3.42-54.080s-14.612-26.62-27.732-42.108-5.396-28.024 16.604-28.024h282.288c22 0 29.816 12.54 17.368 28.028zM540 288c0-4.4-3.6-8-8-8h-40c-4.4 0-8 3.6-8 8v288c0 4.4 3.6 8 8 8h40c4.4 0 8-3.6 8-8v-288zM543.996 197.336c0-17.671-14.325-31.996-31.996-31.996s-31.996 14.325-31.996 31.996c0 17.671 14.325 31.996 31.996 31.996s31.996-14.325 31.996-31.996z" />
<glyph unicode="&#xe622;" glyph-name="house" d="M937.572 405.548l-387.496 437.512c-19.808 23.228-52.224 23.060-72.028-0.168l-387.568-437.26c-19.844-23.188-12.464-41.632 16.424-41.632h81.096v-337.628c0-0.324 0-0.992 0-2.372h222.708c-6.864 27.204-10.708 57.3-10.708 89 0 120.948 55.516 219 124 219s124-98.052 124-219c0-31.7-3.844-61.796-10.708-89h202.708c0 1.38 0 2.048 0 2.372 0 0.144 0 0.244 0 0.268v337.36h81.108c28.816 0 36.272 18.304 16.464 41.548z" />
</font>
</defs>
</svg>
